<?xml version="1.0" encoding="UTF-8" standalone="no"?>
<!-- Created with Inkscape (http://www.inkscape.org/) -->

<svg
   version="1.1"
   id="svg1"
   width="1347"
   height="236.82689"
   viewBox="0 0 1347 236.82689"
   xml:space="preserve"
   xmlns="http://www.w3.org/2000/svg"
   xmlns:svg="http://www.w3.org/2000/svg"><defs
     id="defs1" /><g
     id="g1"
     transform="translate(-44.659706,442.49469)"><path
       style="fill:#000000"
       d="m 741.1597,-206.92075 c -21.73581,-4.94365 -40.37991,-15.45604 -55.69415,-31.4029 -21.91973,-22.82522 -32.80585,-50.99629 -32.80585,-84.89494 0,-51.59251 30.93272,-96.45488 77,-111.67472 27.64609,-9.1338 58.47857,-7.03352 84.51704,5.75721 45.23161,22.21886 69.53338,69.38456 63.44768,123.14141 -5.2443,46.32459 -34.85861,82.18845 -80.20204,97.12719 -7.76816,2.55927 -9.5195,2.73983 -29.26268,3.0168 -15.08377,0.2116 -22.69035,-0.0899 -27,-1.07005 z m 47,-38.01533 c 35.78575,-12.10337 55.43897,-46.49263 50.55903,-88.46832 -2.47922,-21.32549 -8.83138,-35.04325 -22.50029,-48.59029 -15.51656,-15.37822 -28.90055,-20.71198 -52.06226,-20.74774 -11.89423,-0.0184 -13.75061,0.23743 -21.76121,2.99857 -11.20022,3.86055 -18.32451,8.18348 -26.34694,15.987 -17.47895,17.002 -25.23871,38.52684 -24.09728,66.84358 0.44919,11.14346 0.99403,14.47671 3.6778,22.5 1.73277,5.18023 4.74115,12.26771 6.68528,15.74997 6.75419,12.09789 21.85353,25.59089 34.92116,31.20608 15.54492,6.67968 35.68172,7.6766 50.92471,2.52115 z m 214,38.78552 c -38.369,-4.55582 -70.89539,-28.46777 -88.08555,-64.75653 -11.75226,-24.80927 -14.3032,-55.84732 -6.86985,-83.5876 6.78746,-25.32989 25.56276,-52.98536 45.75299,-67.39281 13.90657,-9.92352 32.71518,-16.71387 50.20671,-18.12575 9.5835,-0.77356 25.1753,0.80653 35.4957,3.5972 7.9494,2.1495 30.9166,12.91104 33.0558,15.48859 1.0366,1.24899 0.9471,2.20646 -0.4888,5.23081 -2.4547,5.17014 -14.4673,25.02233 -15.5435,25.68745 -0.4875,0.30133 -5.311,-1.69146 -10.7187,-4.42841 -12.26,-6.20498 -20.7057,-8.23914 -34.3048,-8.26234 -15.80443,-0.027 -26.81203,4.18201 -39.98373,15.28858 -20.33174,17.14396 -32.29177,51.08895 -28.10032,79.75439 4.45364,30.45863 26.66854,56.13834 54.17222,62.62138 8.33733,1.96521 24.80453,1.97285 32.45173,0.015 5.7605,-1.47476 17.8936,-6.97287 25.7911,-11.68726 l 3.831,-2.28688 1.669,2.3535 c 3.6875,5.19983 17.169,26.45267 17.169,27.06599 0,1.03448 -11.7823,8.47695 -19.7172,12.45469 -17.3532,8.6991 -39.0211,12.96018 -55.7828,10.96995 z m -820.54695,-67.57157 -0.047,-65.27256 -2.42533,3.04788 c -15.74566,19.78734 -47.22334,57.88176 -48.05031,58.15068 -0.58826,0.1913 -12.06326,-13.4559 -25.5,-30.32711 l -24.430446,-30.67492 -0.25729,64.65174 -0.25729,64.65173 H 62.652413 44.659708 V -324.0537 c 0,-68.1562 0.366815,-114.33231 0.905592,-113.99933 0.498076,0.30783 19.908232,23.73438 43.133684,52.05901 23.225436,28.32464 42.505426,51.46859 42.844396,51.43101 0.33898,-0.0376 3.17705,-3.30008 6.30683,-7.25 3.12977,-3.94992 16.11373,-19.78168 28.85325,-35.18168 12.73951,-15.4 29.30378,-35.425 36.8095,-44.5 l 13.64674,-16.5 0.73925,19.5 c 0.40659,10.725 0.63159,62.25 0.5,114.5 l -0.23925,95 -18.25,0.27256 -18.25,0.27256 z m 73.04695,-49.77256 v -115 h 44 44 v 18.5 18.5 h -26 -26 v 28.87907 28.87907 l 8.25,-0.0233 c 4.5375,-0.0128 13.9875,0.0416 21,0.12093 l 12.75,0.1442 v 18.5 18.5 h -21 -21 v 30.5 30.5 h 28.5 28.5 v 17.83952 17.83951 l -26.25,0.65844 c -14.4375,0.36214 -35.3625,0.65936 -46.5,0.66049 l -20.25,0.002 z m 159,18.5 v -96.5 h -21 -21 v -18.65367 -18.65368 l 12.15701,0.65368 c 6.68635,0.35952 33.68635,0.65367 60,0.65367 h 47.84299 v 18 18 h -20.5 -20.5 v 96.5 96.5 h -18.5 -18.5 z m 107.71932,95.88599 c -0.39562,-0.39563 -0.71932,-52.17731 -0.71932,-115.0704 v -114.35109 l 11.25,0.57099 c 33.44021,1.69723 52.58168,7.29013 68.58364,20.03928 13.11995,10.45299 23.74789,26.65131 28.3046,43.13978 1.72163,6.22971 2.13586,10.3832 2.07297,20.78545 -0.0914,15.11891 -2.06412,24.28638 -7.5853,35.24999 -3.71881,7.38456 -13.57153,20.48888 -18.05881,24.01858 l -2.67639,2.10524 18.55465,40.68077 c 10.20505,22.37442 18.55464,41.08819 18.55464,41.58617 0,0.51665 -7.57575,0.78815 -17.64381,0.63233 l -17.64381,-0.27308 -14.49884,-33.82421 -14.49885,-33.82422 -5.10734,0.62657 c -2.80904,0.34461 -7.01384,0.87821 -9.344,1.18576 l -4.23666,0.55919 -0.26334,33.13846 -0.26335,33.13845 -17.03068,0.30265 c -9.36688,0.16646 -17.35438,-0.021 -17.75,-0.41666 z m 51.77893,-106.78767 c 8.37555,-4.13942 14.95931,-10.71625 18.92604,-18.90612 13.45596,-27.78173 0.99958,-56.37095 -28.35579,-65.08067 -2.98732,-0.88634 -5.79982,-1.61153 -6.25,-1.61153 -0.45017,0 -0.8185,20.30853 -0.8185,45.13006 v 45.13005 l 4.57664,-0.51585 c 2.51715,-0.28372 7.88188,-2.14939 11.92161,-4.14594 z m 522.14775,106.67798 c -5.876,-0.31928 -6.7866,-0.61528 -6.3809,-2.07436 0.2602,-0.93606 13.9656,-37.70194 30.4563,-81.70194 16.4908,-44 35.7553,-95.6375 42.8099,-114.75 7.0546,-19.1125 13.0887,-34.75 13.4091,-34.75 0.3203,0 4.3356,10.2375 8.9228,22.75 11.6206,31.69712 58.1083,155.65246 69.4755,185.25 l 9.4095,24.5 -10.6241,0.7579 c -5.8432,0.41684 -15.0757,0.64184 -20.5166,0.5 l -9.8926,-0.2579 -5.4949,-15.76248 -5.4949,-15.76248 -35.4758,0.26248 -35.4758,0.26248 -5.2613,14.64258 c -2.8938,8.05341 -5.5412,15.09534 -5.8832,15.64872 -0.6112,0.98905 -19.6942,1.2614 -33.983,0.485 z m 102.354,-66.73044 c 0,-0.80188 -21.2095,-61.99313 -21.9883,-63.43807 -0.4595,-0.85265 -4.8704,10.96803 -11.381,30.50023 -5.8469,17.54086 -10.6307,32.22985 -10.6307,32.64222 0,0.41237 9.9,0.74976 22,0.74976 12.1,0 22,-0.20436 22,-0.45414 z m 89,-47.40656 v -115.1393 h 19.5 19.5 v 96.34497 96.34497 l 13.6581,0.65503 c 7.512,0.36027 22.362,0.65503 33,0.65503 h 19.3419 v 17.5 17.5 l -47.25,0.009 c -25.9875,0.005 -49.6125,0.29246 -52.5,0.63929 l -5.25,0.6306 z"
       id="path1" /></g></svg>
